<svg xmlns="http://www.w3.org/2000/svg" width="24" height="24" viewBox="0 0 24 24"><g transform="translate(-335 -688)"><rect width="24" height="24" transform="translate(335 688)" fill="none"/><g transform="translate(58 49)"><path d="M1.333,3H14.667A1.383,1.383,0,0,1,16,4.333v9.333A1.383,1.383,0,0,1,14.667,15H1.333A1.383,1.383,0,0,1,0,13.667V4.333A1.383,1.383,0,0,1,1.333,3m8,2v.667h5.333V5H9.333m0,1.333V7h5.333V6.333H9.333m0,1.333v.667H14V7.667H9.333m-4,2.607c-1.333,0-4,.727-4,2.06V13h8v-.667c0-1.333-2.667-2.06-4-2.06M5.333,5a2,2,0,1,0,2,2A2,2,0,0,0,5.333,5Z" transform="translate(281 642)" fill="#801f92"/><path d="M6,4V2H2A2,2,0,0,0,0,4V8H2V4M22,2H18V4h4V8h2V4a2,2,0,0,0-2-2M2,16H0v4a2,2,0,0,0,2,2H6V20H2V16m20,4H18v2h4a2,2,0,0,0,2-2V16H22v4" transform="translate(277 639)" fill="#801f92"/></g></g></svg>