<svg xmlns="http://www.w3.org/2000/svg" width="240.364" height="240" viewBox="0 0 240.364 240">
  <g id="Grupo_10479" data-name="Grupo 10479" transform="translate(-212.636 -293)" opacity="0.722">
    <g id="Retângulo_3557" data-name="Retângulo 3557" transform="translate(213 293)" fill="#f0f0f0" stroke="#e6e6e6" stroke-width="1">
      <rect width="240" height="240" rx="120" stroke="none"/>
      <rect x="0.5" y="0.5" width="239" height="239" rx="119.5" fill="none"/>
    </g>
    <g id="undraw_information_tab_ocka" transform="translate(212.146 323.36)">
      <g id="Grupo_2986" data-name="Grupo 2986">
        <path id="Caminho_2894" data-name="Caminho 2894" d="M174.483,123.8A1.485,1.485,0,0,0,173,125.285v30.988a1.485,1.485,0,0,0,1.483,1.483H294.811a1.485,1.485,0,0,0,1.484-1.483V125.285a1.485,1.485,0,0,0-1.483-1.483Z" transform="translate(-172.011 -123.143)" fill="#fff" stroke="#2bbab4" stroke-width="1"/>
        <path id="Path_40" data-name="Path 40" d="M263.971,156.355a1.96,1.96,0,1,0,0,3.921h49.148a1.96,1.96,0,1,0,.064-3.92H263.971Z" transform="translate(-231.678 -144.964)" fill="#2f2e41"/>
        <path id="Path_40-2" data-name="Path 40" d="M263.971,182.355a1.96,1.96,0,1,0,0,3.921h80.8a1.96,1.96,0,0,0,.064-3.92h-80.86Z" transform="translate(-231.678 -162.393)" fill="#2f2e41"/>
        <path id="Path_40-3" data-name="Path 40" d="M291.72,330.833a1.96,1.96,0,1,0,0,3.921h8.6a1.96,1.96,0,1,0,.064-3.92H291.72Z" transform="translate(-187.279 -319.923)" fill="#1ac15d"/>
        <g id="Grupo_2983" data-name="Grupo 2983">
          <ellipse id="Elipse_416" data-name="Elipse 416" cx="7.912" cy="7.912" rx="7.912" ry="7.912" transform="translate(10.191 9.725)" fill="#2bbab4"/>
          <path id="Icon_material-person" data-name="Icon material-person" d="M8.767,8.767A2.383,2.383,0,1,0,6.383,6.383,2.383,2.383,0,0,0,8.767,8.767Zm0,1.192c-1.591,0-4.767.8-4.767,2.383v1.192h9.533V12.342C13.533,10.757,10.357,9.958,8.767,9.958Z" transform="translate(9.43 8.87)" fill="#fff"/>
        </g>
      </g>
      <g id="Grupo_2987" data-name="Grupo 2987" transform="translate(0 50)">
        <path id="Caminho_2894-2" data-name="Caminho 2894" d="M174.483,123.8A1.485,1.485,0,0,0,173,125.285v30.988a1.485,1.485,0,0,0,1.483,1.483H294.811a1.485,1.485,0,0,0,1.484-1.483V125.285a1.485,1.485,0,0,0-1.483-1.483Z" transform="translate(-172.011 -123.143)" fill="#fff" stroke="#2bbab4" stroke-width="1"/>
        <path id="Path_40-4" data-name="Path 40" d="M263.971,156.355a1.96,1.96,0,1,0,0,3.921h49.148a1.96,1.96,0,1,0,.064-3.92H263.971Z" transform="translate(-231.678 -144.964)" fill="#2f2e41"/>
        <path id="Path_40-5" data-name="Path 40" d="M263.971,182.355a1.96,1.96,0,1,0,0,3.921h80.8a1.96,1.96,0,0,0,.064-3.92h-80.86Z" transform="translate(-231.678 -162.393)" fill="#2f2e41"/>
        <path id="Path_40-6" data-name="Path 40" d="M291.72,330.833a1.96,1.96,0,1,0,0,3.921h8.6a1.96,1.96,0,1,0,.064-3.92H291.72Z" transform="translate(-187.279 -319.923)" fill="#e6a31e"/>
        <g id="Grupo_2983-2" data-name="Grupo 2983">
          <ellipse id="Elipse_416-2" data-name="Elipse 416" cx="7.912" cy="7.912" rx="7.912" ry="7.912" transform="translate(10.191 9.725)" fill="#2bbab4"/>
          <path id="Icon_material-person-2" data-name="Icon material-person" d="M8.767,8.767A2.383,2.383,0,1,0,6.383,6.383,2.383,2.383,0,0,0,8.767,8.767Zm0,1.192c-1.591,0-4.767.8-4.767,2.383v1.192h9.533V12.342C13.533,10.757,10.357,9.958,8.767,9.958Z" transform="translate(9.43 8.87)" fill="#fff"/>
        </g>
      </g>
      <g id="Grupo_2989" data-name="Grupo 2989" transform="translate(0 100)">
        <path id="Caminho_2894-3" data-name="Caminho 2894" d="M174.483,123.8A1.485,1.485,0,0,0,173,125.285v30.988a1.485,1.485,0,0,0,1.483,1.483H294.811a1.485,1.485,0,0,0,1.484-1.483V125.285a1.485,1.485,0,0,0-1.483-1.483Z" transform="translate(-172.011 -123.143)" fill="#fff" stroke="#2bbab4" stroke-width="1"/>
        <path id="Path_40-7" data-name="Path 40" d="M263.971,156.355a1.96,1.96,0,1,0,0,3.921h49.148a1.96,1.96,0,1,0,.064-3.92H263.971Z" transform="translate(-231.678 -144.964)" fill="#2f2e41"/>
        <path id="Path_40-8" data-name="Path 40" d="M263.971,182.355a1.96,1.96,0,1,0,0,3.921h80.8a1.96,1.96,0,0,0,.064-3.92h-80.86Z" transform="translate(-231.678 -162.393)" fill="#2f2e41"/>
        <path id="Path_40-9" data-name="Path 40" d="M291.72,330.833a1.96,1.96,0,1,0,0,3.921h8.6a1.96,1.96,0,1,0,.064-3.92H291.72Z" transform="translate(-187.279 -319.923)" fill="#e6a31e"/>
        <g id="Grupo_2983-3" data-name="Grupo 2983">
          <ellipse id="Elipse_416-3" data-name="Elipse 416" cx="7.912" cy="7.912" rx="7.912" ry="7.912" transform="translate(10.191 9.725)" fill="#2bbab4"/>
          <path id="Icon_material-person-3" data-name="Icon material-person" d="M8.767,8.767A2.383,2.383,0,1,0,6.383,6.383,2.383,2.383,0,0,0,8.767,8.767Zm0,1.192c-1.591,0-4.767.8-4.767,2.383v1.192h9.533V12.342C13.533,10.757,10.357,9.958,8.767,9.958Z" transform="translate(9.43 8.87)" fill="#fff"/>
        </g>
      </g>
      <g id="Grupo_2990" data-name="Grupo 2990" transform="translate(-79 -38)">
        <ellipse id="Elipse_415" data-name="Elipse 415" cx="60.421" cy="4.608" rx="60.421" ry="4.608" transform="translate(162.669 207.173)" fill="#10948c"/>
        <ellipse id="Elipse_417" data-name="Elipse 417" cx="9.252" cy="9.252" rx="9.252" ry="9.252" transform="translate(227.936 53.076)" fill="#2f2e41"/>
        <ellipse id="Elipse_418" data-name="Elipse 418" cx="11.014" cy="11.014" rx="11.014" ry="11.014" transform="translate(210.754 62.328)" fill="#2f2e41"/>
        <path id="Caminho_2899" data-name="Caminho 2899" d="M804.193,629.3l5.4,9.558s7.064-7.064,3.324-8.934l-5.818-1.87Z" transform="translate(-595.123 -461.163)" fill="#ffb8b8"/>
        <path id="Caminho_2900" data-name="Caminho 2900" d="M659.805,587.557l-1.662,7.064,4.987,1.662,1.662-8.1Z" transform="translate(-441.177 -393.861)" fill="#ffb8b8"/>
        <path id="Caminho_2901" data-name="Caminho 2901" d="M770.943,486.812l-1.071,10.929s-19.282,17.775-12.633,24.424a106.124,106.124,0,0,0,14.96,12.051l3.74-2.7L767.42,519.88l17.245-12.259-3.948,51.32,6.025,1.662,13.505-51.943s4.155-16.622-6.025-24.933Z" transform="translate(-562.713 -364.414)" fill="#2f2e41"/>
        <path id="Caminho_2902" data-name="Caminho 2902" d="M821.406,726.326s-3.117-3.948-4.571-.416a49.383,49.383,0,0,0-2.286,7.48s-5.4,8.1,2.909,7.064,5.818-4.779,5.818-4.779a2.782,2.782,0,0,0,1.247-2.7c-.208-1.87-1.247-6.233-1.247-6.233S822.237,724.872,821.406,726.326Z" transform="translate(-600.908 -525.773)" fill="#2f2e41"/>
        <path id="Caminho_2903" data-name="Caminho 2903" d="M811.622,630.367s-1.766,1.766,1.143,4.675c0,0,.416,8.1,4.156,7.272s4.987-11.012,4.571-12.051.623-8.727-1.87-8.519-5.61,2.909-5.61,2.909,5.4,4.987.208,8.311A6.063,6.063,0,0,1,811.622,630.367Z" transform="translate(-599.747 -456.929)" fill="#2f2e41"/>
        <path id="Caminho_2904" data-name="Caminho 2904" d="M827.547,370.094l-15.791.416c3.48-4.938,4.135-10.764,2.7-17.245l10.389,2.078C822.845,360.631,822.811,365.169,827.547,370.094Z" transform="translate(-600.193 -276.959)" fill="#ffb8b8"/>
        <path id="Caminho_2905" data-name="Caminho 2905" d="M815.361,420.555l-24.517,6.856L786.139,395a6.24,6.24,0,0,1,5.511-5.789l5.635-.65,10.181,1.039,4.815,1.361a6.217,6.217,0,0,1,4.52,6.263Z" transform="translate(-583.021 -300.618)" fill="#10948c"/>
        <path id="Caminho_2906" data-name="Caminho 2906" d="M776.1,422.024l-3.948,4.571L762.6,416.414l3.553-17.618a10.8,10.8,0,0,1,8.554-8.47l2.645-.506-5.818,23.686Z" transform="translate(-567.239 -301.464)" fill="#2bbab4"/>
        <path id="Caminho_2907" data-name="Caminho 2907" d="M797.03,493.933,794.109,490l2.493-2.493,4.05,1.056a3.433,3.433,0,0,1,1.667,5.638h0a3.433,3.433,0,0,1-5.289-.269Z" transform="translate(-588.363 -366.948)" fill="#ffb8b8"/>
        <path id="Caminho_2908" data-name="Caminho 2908" d="M859.012,425.8l3.948,4.571,9.557-10.181-3.553-17.618a10.8,10.8,0,0,0-8.554-8.47l-2.645-.506,5.818,23.686Z" transform="translate(-631.034 -303.998)" fill="#2bbab4"/>
        <path id="Caminho_2909" data-name="Caminho 2909" d="M849.557,497.715l2.921-3.932-2.493-2.493-4.05,1.056a3.433,3.433,0,0,0-1.667,5.638h0a3.433,3.433,0,0,0,5.289-.269Z" transform="translate(-621.384 -369.483)" fill="#ffb8b8"/>
        <ellipse id="Elipse_419" data-name="Elipse 419" cx="7.213" cy="7.213" rx="7.213" ry="7.213" transform="translate(213.032 67.02)" fill="#ffb8b8"/>
        <path id="Caminho_2910" data-name="Caminho 2910" d="M814.646,327.991h12.336l3.745-5.066c-3.684-3.225-8.295-3.8-13.437-2.864Z" transform="translate(-602.13 -254.429)" fill="#2f2e41"/>
        <path id="Caminho_2911" data-name="Caminho 2911" d="M961.565,567.363a78.862,78.862,0,0,1-3.684,21.8c-.051.164-.105.325-.159.489H943.974c.015-.147.029-.31.044-.489.917-10.539,6.2-74.679-.117-85.648C944.453,504.406,962.632,533.877,961.565,567.363Z" transform="translate(-688.774 -377.679)" fill="#2bbab4"/>
        <path id="Caminho_2912" data-name="Caminho 2912" d="M972.657,668.72c-.115.164-.235.328-.357.489H961.986c.078-.139.169-.3.274-.489,1.7-3.075,6.747-12.269,11.428-21.8,5.031-10.243,9.646-20.874,9.258-24.722C983.066,623.066,986.547,649.521,972.657,668.72Z" transform="translate(-700.897 -457.236)" fill="#20aba4"/>
        <path id="Caminho_2913" data-name="Caminho 2913" d="M701.935,664.585a40.03,40.03,0,0,0,1.87,11.066c.026.083.053.165.081.248h6.978c-.008-.074-.015-.158-.022-.248-.465-5.349-3.148-37.906.06-43.473C710.621,632.629,701.394,647.588,701.935,664.585Z" transform="translate(-526.561 -463.925)" fill="#2bbab4"/>
        <path id="Caminho_2914" data-name="Caminho 2914" d="M692.463,716.032c.058.083.119.166.181.248h5.235l-.139-.248c-.865-1.561-3.425-6.228-5.8-11.066-2.554-5.2-4.9-10.6-4.7-12.548C687.179,692.858,685.412,706.287,692.463,716.032Z" transform="translate(-516.564 -504.307)" fill="#20aba4"/>
      </g>
    </g>
  </g>
</svg>
