<svg xmlns="http://www.w3.org/2000/svg" width="24" height="24" viewBox="0 0 24 24"><g transform="translate(-280 -9)"><rect width="24" height="24" transform="translate(280 9)" fill="none"/><path d="M17,21l-2.75-3,1.16-1.16L17,18.43l3.59-3.59,1.16,1.41M12.8,21H5a1.993,1.993,0,0,1-2-2V5A1.993,1.993,0,0,1,5,3H19a1.993,1.993,0,0,1,2,2v7.8a5.985,5.985,0,0,0-2-.72V5H5V19h7.08a5.985,5.985,0,0,0,.72,2M12,17H7V15h5m2.68-2H7V11H17v1.08a5.891,5.891,0,0,0-2.32.92M17,9H7V7H17" transform="translate(280 9)" fill="#1ac15d"/></g></svg>