<svg xmlns="http://www.w3.org/2000/svg" width="24" height="24" viewBox="0 0 24 24"><g transform="translate(-280 -9)"><rect width="24" height="24" transform="translate(280 9)" fill="none"/><g transform="translate(283 12)"><path d="M2,2V0A2,2,0,0,0,0,2" fill="#999"/><path d="M4,2H6V0H4" fill="#999"/><path d="M4,14H7.008V12H4" transform="translate(3.992)" fill="#999"/><path d="M7.992,2h3.993V0H7.992" fill="#999"/><path d="M4,18H6V16H4" fill="#999"/><path d="M7.992,18h2V16h-2" fill="#999"/><path d="M0,6H2V4H0" fill="#999"/><path d="M0,10H2V8H0" fill="#999"/><path d="M0,14H2V12H0" fill="#999"/><path d="M2,16H0a2,2,0,0,0,2,2" fill="#999"/><path d="M16.014,0H11.985V2H16V16H11.985v2H16a1.993,1.993,0,0,0,2-1.986V2a1.992,1.992,0,0,0-1.985-2" fill="#999"/><path d="M4,18H6V16H4" fill="#999"/><path d="M7.992,18h3.993V16H7.992" fill="#999"/><path d="M4,6h6.008V4H4" transform="translate(3.992)" fill="#999"/><path d="M4,10h6.008V8H4" transform="translate(3.992)" fill="#999"/></g></g></svg>