<svg xmlns="http://www.w3.org/2000/svg" width="24" height="24" viewBox="0 0 24 24"><g transform="translate(-280 -9)"><rect width="24" height="24" transform="translate(280 9)" fill="none"/><g transform="translate(283 12)"><path d="M2,2V0A2,2,0,0,0,0,2" fill="#999"/><path d="M16,2h2a2,2,0,0,0-2-2" fill="#999"/><path d="M16,16v2a2,2,0,0,0,2-2" fill="#999"/><path d="M2,16H0a2,2,0,0,0,2,2" fill="#999"/><path d="M4,2H6V0H4" fill="#999"/><path d="M7.992,2h2V0h-2" fill="#999"/><path d="M12,2h2V0H12" fill="#999"/><path d="M4,18H6V16H4" fill="#999"/><path d="M7.992,18h2V16h-2" fill="#999"/><path d="M12,18h2V16H12" fill="#999"/><path d="M2,14V12H0v2" fill="#999"/><path d="M2,10.008v-2H0v2" fill="#999"/><path d="M2,6V4H0V6" fill="#999"/><path d="M18,14V12H16v2" fill="#999"/><path d="M18,10.008v-2H16v2" fill="#999"/><path d="M18,6V4H16V6" fill="#999"/></g></g></svg>