<svg xmlns="http://www.w3.org/2000/svg" width="24" height="24" viewBox="0 0 24 24"><g transform="translate(-280 -9)"><rect width="24" height="24" transform="translate(280 9)" fill="none"/><path d="M15.5,12a4.5,4.5,0,0,1,3.81,6.9L22.39,22,21,23.39l-3.12-3.07A4.5,4.5,0,1,1,15.5,12m0,2A2.5,2.5,0,1,0,18,16.5,2.5,2.5,0,0,0,15.5,14M5,3H19a1.993,1.993,0,0,1,2,2v8.03A6.787,6.787,0,0,0,19,11V5H5V19H9.5a6.538,6.538,0,0,0,1.31,2H5a1.993,1.993,0,0,1-2-2V5A1.993,1.993,0,0,1,5,3M7,7H17V9H7V7m0,4h5.03A6.787,6.787,0,0,0,10,13H7V11m0,4H9.17A6.97,6.97,0,0,0,9,16.5V17H7Z" transform="translate(280 9)" fill="#e6a31e"/></g></svg>