<svg xmlns="http://www.w3.org/2000/svg" width="24" height="24" viewBox="0 0 24 24"><g transform="translate(-280 -9)"><rect width="24" height="24" transform="translate(280 9)" fill="none"/><path d="M14.46,15.88l1.42-1.42L18,16.59l2.12-2.13,1.42,1.42L19.41,18l2.13,2.12-1.42,1.42L18,19.41l-2.12,2.13-1.42-1.42L16.59,18l-2.13-2.12M5,3H19a1.993,1.993,0,0,1,2,2v7.8a5.985,5.985,0,0,0-2-.72V5H5V19h7.08a5.985,5.985,0,0,0,.72,2H5a1.993,1.993,0,0,1-2-2V5A1.993,1.993,0,0,1,5,3M7,7H17V9H7V7m0,4H17v1.08a5.891,5.891,0,0,0-2.32.92H7V11m0,4h5v2H7Z" transform="translate(280 9)" fill="#e53629"/></g></svg>