<svg xmlns="http://www.w3.org/2000/svg" xmlns:xlink="http://www.w3.org/1999/xlink" width="298.42" height="85.628" viewBox="0 0 298.42 85.628"><defs><filter id="a" x="16.136" y="16.123" width="53.403" height="59.277" filterUnits="userSpaceOnUse"><feOffset dy="3" input="SourceAlpha"/><feGaussianBlur stdDeviation="3" result="b"/><feFlood flood-opacity="0.231"/><feComposite operator="in" in2="b"/><feComposite in="SourceGraphic"/></filter></defs><g transform="translate(-91 -740)"><g transform="translate(91 740)"><g transform="matrix(1, 0, 0, 1, 0, 0)" filter="url(#a)"><path d="M63.064,75.133H80.739v8.044H47.4L67.245,49.944H50.628V41.9H82.8Z" transform="translate(-22.26 -19.78)" fill="#801f92"/></g><path d="M68.113,69.316h0a36.673,36.673,0,1,1,0-52.866h8.255a42.812,42.812,0,1,0,0,52.919Z" transform="translate(0.099 -0.095)" fill="#c3c3c8"/></g><path d="M3.123,0V-27.308H12.8q14.549,0,14.549,13.311a13.46,13.46,0,0,1-3.97,10.188Q19.4,0,12.8,0ZM9.274-22.3v17.31h3.047a8.233,8.233,0,0,0,6.275-2.4,9.1,9.1,0,0,0,2.276-6.532,8.259,8.259,0,0,0-2.257-6.141A8.6,8.6,0,0,0,12.283-22.3ZM40.581.476a10.483,10.483,0,0,1-7.665-2.733,9.907,9.907,0,0,1-2.79-7.417,9.907,9.907,0,0,1,2.895-7.57,10.937,10.937,0,0,1,7.827-2.733,10.356,10.356,0,0,1,7.617,2.733,9.714,9.714,0,0,1,2.761,7.227,10.311,10.311,0,0,1-2.847,7.674A10.6,10.6,0,0,1,40.581.476Zm.152-15.844A4.014,4.014,0,0,0,37.419-13.9,6.466,6.466,0,0,0,36.239-9.75q0,5.618,4.532,5.618,4.323,0,4.323-5.77Q45.094-15.368,40.733-15.368ZM69.907-.7A11.9,11.9,0,0,1,64.022.476a9.952,9.952,0,0,1-7.274-2.723,9.4,9.4,0,0,1-2.78-7.027,10.361,10.361,0,0,1,2.98-7.836,11.014,11.014,0,0,1,7.969-2.866,10.226,10.226,0,0,1,4.989.914v5.1A6.86,6.86,0,0,0,65.7-15.368a5.545,5.545,0,0,0-4.1,1.514,5.649,5.649,0,0,0-1.514,4.18,5.557,5.557,0,0,0,1.447,4.066,5.319,5.319,0,0,0,3.98,1.476,7.942,7.942,0,0,0,4.4-1.409ZM92.377,0h-6V-2.971h-.1A6.805,6.805,0,0,1,80.323.476q-6.779,0-6.779-8.208V-19.5h6V-8.265q0,4.132,3.275,4.132a3.24,3.24,0,0,0,2.59-1.133,4.569,4.569,0,0,0,.971-3.075V-19.5h6Zm36.029,0h-6V-11.121q0-4.247-3.123-4.247a2.869,2.869,0,0,0-2.418,1.276,5.243,5.243,0,0,0-.933,3.18V0h-6.018V-11.235q0-4.132-3.066-4.132a2.939,2.939,0,0,0-2.466,1.219,5.363,5.363,0,0,0-.924,3.313V0H97.443V-19.5h6.018v3.047h.076A7.2,7.2,0,0,1,106.155-19a7.2,7.2,0,0,1,3.685-.981,5.615,5.615,0,0,1,5.656,3.637,7.213,7.213,0,0,1,6.551-3.637q6.36,0,6.36,7.846Zm22.28-8.036H137.966q.3,4.247,5.351,4.247a10.447,10.447,0,0,0,5.656-1.523V-.971A14.858,14.858,0,0,1,141.946.476q-4.723,0-7.332-2.618a9.893,9.893,0,0,1-2.609-7.3,10.435,10.435,0,0,1,2.818-7.693,9.389,9.389,0,0,1,6.932-2.837,8.522,8.522,0,0,1,6.6,2.533,9.753,9.753,0,0,1,2.333,6.875Zm-5.58-3.694q0-4.189-3.39-4.189a3.236,3.236,0,0,0-2.5,1.2,5.445,5.445,0,0,0-1.285,2.99ZM173.1,0h-6V-10.835q0-4.532-3.237-4.532a3.212,3.212,0,0,0-2.571,1.2,4.57,4.57,0,0,0-1.009,3.047V0h-6.018V-19.5h6.018v3.085h.076a6.9,6.9,0,0,1,6.265-3.561q6.475,0,6.475,8.036Zm16.548-.229a8.9,8.9,0,0,1-4.018.7q-6.36,0-6.36-6.608v-8.931h-3.161V-19.5h3.161v-4.208l6-1.714V-19.5h4.38v4.437h-4.38v7.884q0,3.047,2.418,3.047a4.077,4.077,0,0,0,1.961-.552Zm12.53.7a10.483,10.483,0,0,1-7.665-2.733,9.907,9.907,0,0,1-2.79-7.417,9.907,9.907,0,0,1,2.895-7.57,10.937,10.937,0,0,1,7.827-2.733,10.356,10.356,0,0,1,7.617,2.733,9.714,9.714,0,0,1,2.761,7.227,10.311,10.311,0,0,1-2.847,7.674A10.6,10.6,0,0,1,202.179.476Zm.152-15.844a4.014,4.014,0,0,0-3.313,1.466,6.466,6.466,0,0,0-1.181,4.151q0,5.618,4.532,5.618,4.323,0,4.323-5.77Q206.692-15.368,202.332-15.368ZM215.452-.514V-5.389a12.812,12.812,0,0,0,2.961,1.333,9.818,9.818,0,0,0,2.79.438,5.984,5.984,0,0,0,2.523-.438,1.415,1.415,0,0,0,.924-1.333,1.233,1.233,0,0,0-.419-.952,3.894,3.894,0,0,0-1.076-.667,12.21,12.21,0,0,0-1.438-.514q-.781-.229-1.5-.514a14.414,14.414,0,0,1-2.047-.943,5.917,5.917,0,0,1-1.485-1.171,4.6,4.6,0,0,1-.914-1.542,6.155,6.155,0,0,1-.314-2.076,5.344,5.344,0,0,1,.714-2.818,5.833,5.833,0,0,1,1.9-1.933,8.7,8.7,0,0,1,2.723-1.1,14.2,14.2,0,0,1,3.19-.352,17.7,17.7,0,0,1,2.628.2,19.614,19.614,0,0,1,2.628.581v4.646a9.5,9.5,0,0,0-2.447-1,10.322,10.322,0,0,0-2.561-.333,5.675,5.675,0,0,0-1.114.1,3.669,3.669,0,0,0-.924.3,1.7,1.7,0,0,0-.628.514,1.184,1.184,0,0,0-.229.714,1.319,1.319,0,0,0,.343.914,2.977,2.977,0,0,0,.9.657,8.835,8.835,0,0,0,1.228.5q.676.219,1.343.448a17.455,17.455,0,0,1,2.171.914,6.941,6.941,0,0,1,1.666,1.162,4.562,4.562,0,0,1,1.066,1.562,5.55,5.55,0,0,1,.371,2.133A5.563,5.563,0,0,1,229.668-3a6.022,6.022,0,0,1-2,2A9.068,9.068,0,0,1,224.793.124a15.941,15.941,0,0,1-3.38.352A17.425,17.425,0,0,1,215.452-.514Z" transform="translate(159 798.244)" fill="#5e5d5d"/></g></svg>